<svg xmlns="http://www.w3.org/2000/svg" width="42.434" height="42.434" viewBox="0 0 42.434 42.434">
  <g id="Group_526" data-name="Group 526" transform="translate(-925.839 -1294.679)">
    <g id="Group_4" data-name="Group 4" transform="translate(925.839 1294.679)">
      <path id="Path_9" data-name="Path 9" d="M871.128,245.317H846.493a8.9,8.9,0,0,0-8.9,8.9v24.635a8.9,8.9,0,0,0,8.9,8.9h24.635a8.9,8.9,0,0,0,8.9-8.9V254.216A8.9,8.9,0,0,0,871.128,245.317Zm7.212,8.9V265.69H859.655V247h11.474A7.212,7.212,0,0,1,878.34,254.216ZM846.493,247h11.474V265.69H839.282V254.216A7.212,7.212,0,0,1,846.493,247Zm-7.212,31.847V267.378h18.685v18.685H846.493A7.212,7.212,0,0,1,839.282,278.852Zm31.847,7.212H859.655V267.378H878.34v11.474A7.212,7.212,0,0,1,871.128,286.063Z" transform="translate(-837.594 -245.317)" fill="#fff"/>
      <path id="Path_10" data-name="Path 10" d="M884.892,299.619h3.628v3.629a.41.41,0,0,0,.41.41h.868a.41.41,0,0,0,.41-.41v-3.629h3.629a.41.41,0,0,0,.41-.41v-.868a.41.41,0,0,0-.41-.41h-3.629V294.3a.41.41,0,0,0-.41-.41h-.868a.41.41,0,0,0-.41.41v3.629h-3.628a.41.41,0,0,0-.41.41v.868A.41.41,0,0,0,884.892,299.619Z" transform="translate(-878.008 -287.186)" fill="#fff"/>
      <rect id="Rectangle_44" data-name="Rectangle 44" width="9.765" height="1.688" rx="0.844" transform="translate(26.63 10.746)" fill="#fff"/>
      <path id="Path_11" data-name="Path 11" d="M896.819,453.24l2.566-2.566a.41.41,0,0,0,0-.58l-.614-.614a.41.41,0,0,0-.58,0l-2.566,2.566-2.566-2.566a.41.41,0,0,0-.58,0l-.614.614a.41.41,0,0,0,0,.58l2.566,2.566-2.566,2.566a.41.41,0,0,0,0,.58l.614.614a.41.41,0,0,0,.58,0l2.566-2.566L898.192,457a.41.41,0,0,0,.58,0l.614-.614a.41.41,0,0,0,0-.58Z" transform="translate(-884.269 -421.187)" fill="#fff"/>
      <rect id="Rectangle_45" data-name="Rectangle 45" width="9.765" height="1.688" rx="0.844" transform="translate(26.63 27.757)" fill="#fff"/>
      <rect id="Rectangle_46" data-name="Rectangle 46" width="9.765" height="1.688" rx="0.844" transform="translate(26.63 34.661)" fill="#fff"/>
    </g>
  </g>
</svg>
